<svg height="512pt" viewBox="0 -13 512.00003 512" width="512pt" xmlns="http://www.w3.org/2000/svg"><path d="m204.613281 438.765625c-2.292969 5.503906-7.671875 9.085937-13.628906 9.085937h-.066406l-107.894531-.492187c-5.257813-.019531-10.101563-2.835937-12.730469-7.382813l-8.980469-15.546874-12.851562-22.253907c-.046876-.078125-.085938-.15625-.125-.226562-2.601563-4.519531-2.640626-10.074219-.089844-14.613281l23.136718-41.261719c2.652344-4.707031 7.683594-7.574219 13.058594-7.542969l24.890625.292969 81.269531.945312c5.949219.070313 11.265626 3.695313 13.507813 9.199219 2.246094 5.503906.964844 11.8125-3.238281 16.007812l-28.542969 28.554688 29.105469 29.105469c4.234375 4.234375 5.484375 10.605469 3.179687 16.128906zm0 0" fill="#00af5b"/><path d="m510.019531 321.652344-9.265625 16.0625-12.691406 21.976562c-2.609375 4.507813-7.394531 7.3125-12.613281 7.382813l-47.300781.582031h-.183594c-5.328125 0-10.25-2.875-12.871094-7.53125l-12.0625-21.457031-39.953125-71.097657c-2.90625-5.179687-2.433594-11.601562 1.21875-16.296874 3.644531-4.695313 9.75-6.746094 15.480469-5.207032l39.007812 10.445313 10.65625-39.757813c1.542969-5.78125 6.429688-10.054687 12.367188-10.820312 5.933594-.769532 11.746094 2.125 14.71875 7.3125l53.523437 93.699218c2.609375 4.558594 2.597657 10.160157-.03125 14.707032zm0 0" fill="#00994c"/><path d="m244.300781 7.226562c-2.664062-4.476562-7.488281-7.22265575-12.699219-7.22265575h-43.917968c-5.253906 0-10.109375 2.78906275-12.757813 7.32421875l-54.371093 93.199219c-3.015626 5.171875-2.613282 11.652344 1.019531 16.410156 3.632812 4.757812 9.773437 6.851562 15.558593 5.300781l39.761719-10.65625 10.449219 39.003907c1.539062 5.742187 6.367188 10 12.25 10.8125.679688.089843 1.351562.136718 2.019531.136718 5.160157 0 10.015625-2.710937 12.699219-7.238281l54.152344-91.320313c2.757812-4.648437 2.753906-10.429687-.003906-15.078124zm0 0" fill="#00af5b"/><g fill="#54e360"><path d="m190.40625 271.625c-4.746094 3.644531-11.207031 4.066406-16.386719 1.074219l-20.851562-12.03125-43.835938 78.15625-48.019531 85.605469-12.851562-22.253907c-.046876-.078125-.085938-.15625-.125-.226562l-46.355469-80.296875c-2.640625-4.566406-2.640625-10.199219 0-14.765625l57.824219-100.128907-21.011719-12.128906c-5.167969-2.984375-8.035157-8.792968-7.253907-14.71875.777344-5.917968 5.050782-10.792968 10.820313-12.339844l106.652344-28.570312c7.867187-2.109375 15.96875 2.558594 18.085937 10.433594l28.574219 106.65625c1.546875 5.769531-.53125 11.902344-5.265625 15.535156zm0 0"/><path d="m500.753906 337.714844-12.691406 21.976562-46.355469 80.285156c-2.636719 4.566407-7.511719 7.382813-12.789062 7.382813h-.007813l-115.617187-.019531v24.269531c0 5.976563-3.601563 11.355469-9.117188 13.648437-1.828125.757813-3.75 1.121094-5.648437 1.121094-3.84375 0-7.621094-1.503906-10.449219-4.332031l-78.070313-78.070313c-5.769531-5.769531-5.769531-15.121093 0-20.882812l78.070313-78.078125c4.226563-4.226563 10.574219-5.484375 16.097656-3.203125 5.515625 2.285156 9.117188 7.671875 9.117188 13.648438v24.082031l89.738281-.875zm0 0"/><path d="m437.5625 112.011719-28.574219 106.652343c-1.769531 6.597657-7.738281 10.949219-14.257812 10.949219-1.269531 0-2.546875-.167969-3.828125-.503906l-106.652344-28.582031c-5.769531-1.546875-10.042969-6.410156-10.824219-12.335938-.777343-5.917968 2.089844-11.730468 7.257813-14.722656l20.855468-12.042969-59.046874-99.40625-36.84375-62.019531h118.664062c5.277344 0 10.160156 2.816406 12.800781 7.382812l27.195313 47.136719 30.589844 53.011719 21.011718-12.132812c5.179688-2.992188 11.640625-2.570313 16.386719 1.074218 4.734375 3.632813 6.8125 9.765625 5.265625 15.539063zm0 0"/></g><path d="m403.03125 338.667969-89.738281.875v-24.082031c0-5.976563-3.601563-11.363282-9.117188-13.648438-5.523437-2.28125-11.871093-1.023438-16.097656 3.203125l-32.078125 32.082031v112.871094l32.078125 32.078125c2.828125 2.828125 6.605469 4.332031 10.449219 4.332031 1.898437 0 3.820312-.363281 5.648437-1.121094 5.515625-2.292968 9.117188-7.671874 9.117188-13.648437v-24.269531l115.617187.019531h.007813c5.277343 0 10.152343-2.816406 12.789062-7.382813l46.355469-80.285156 12.691406-21.976562zm0 0" fill="#43c949"/><path d="m432.296875 96.472656c-4.746094-3.644531-11.207031-4.066406-16.386719-1.074218l-21.011718 12.132812-30.589844-53.011719-27.195313-47.136719c-2.640625-4.566406-7.523437-7.382812-12.800781-7.382812h-68.3125v84.761719l45.539062 76.664062-20.855468 12.042969c-5.167969 2.992188-8.035156 8.804688-7.257813 14.722656.78125 5.925782 5.054688 10.789063 10.824219 12.335938l106.652344 28.582031c1.28125.335937 2.558594.503906 3.828125.503906 6.519531 0 12.488281-4.351562 14.257812-10.949219l28.574219-106.652343c1.546875-5.773438-.53125-11.90625-5.265625-15.539063zm0 0" fill="#43c949"/></svg>